<svg height="589" version="1.1" width="715" xmlns="http://www.w3.org/2000/svg" style="overflow: hidden; position: relative;"><desc style="-webkit-tap-highlight-color: rgba(0, 0, 0, 0);">Created with Raphaël 2.1.2</desc><defs style="-webkit-tap-highlight-color: rgba(0, 0, 0, 0);"><path stroke-linecap="round" d="M5,0 0,2.5 5,5z" id="raphael-marker-block" style="-webkit-tap-highlight-color: rgba(0, 0, 0, 0);"></path><marker id="raphael-marker-endblock33" markerHeight="3" markerWidth="3" orient="auto" refX="1.5" refY="1.5" style="-webkit-tap-highlight-color: rgba(0, 0, 0, 0);"><use xmlns:xlink="http://www.w3.org/1999/xlink" xlink:href="#raphael-marker-block" transform="rotate(180 1.5 1.5) scale(0.6,0.6)" stroke-width="1.6667" fill="black" stroke="none" style="-webkit-tap-highlight-color: rgba(0, 0, 0, 0);"></use></marker></defs><rect x="0" y="0" width="51" height="37" r="20" rx="20" ry="20" fill="#ffffff" stroke="#000000" style="-webkit-tap-highlight-color: rgba(0, 0, 0, 0);" stroke-width="2" class="flowchart" id="start" transform="matrix(1,0,0,1,333,4)"></rect><text x="10" y="18.5" text-anchor="start" font="10px &quot;Arial&quot;" stroke="none" fill="#000000" style="-webkit-tap-highlight-color: rgba(0, 0, 0, 0); text-anchor: start; font-style: normal; font-variant: normal; font-weight: normal; font-stretch: normal; font-size: 15px; line-height: normal; font-family: Arial;" id="startt" class="flowchartt" font-size="15px" transform="matrix(1,0,0,1,333,4)"><tspan dy="5.5" style="-webkit-tap-highlight-color: rgba(0, 0, 0, 0);">Start</tspan></text><rect x="0" y="0" width="218" height="37" r="0" rx="0" ry="0" fill="#ffffff" stroke="#000000" style="-webkit-tap-highlight-color: rgba(0, 0, 0, 0);" stroke-width="2" class="flowchart" id="input" transform="matrix(1,0,0,1,249.5,95)"></rect><text x="10" y="18.5" text-anchor="start" font="10px &quot;Arial&quot;" stroke="none" fill="#000000" style="-webkit-tap-highlight-color: rgba(0, 0, 0, 0); text-anchor: start; font-style: normal; font-variant: normal; font-weight: normal; font-stretch: normal; font-size: 15px; line-height: normal; font-family: Arial;" id="inputt" class="flowchartt" font-size="15px" transform="matrix(1,0,0,1,249.5,95)"><tspan dy="5.5" style="-webkit-tap-highlight-color: rgba(0, 0, 0, 0);">User enter the Leboncoin URL</tspan></text><rect x="0" y="0" width="194" height="37" r="0" rx="0" ry="0" fill="#ffffff" stroke="#000000" style="-webkit-tap-highlight-color: rgba(0, 0, 0, 0);" stroke-width="2" class="flowchart" id="click" transform="matrix(1,0,0,1,261.5,186)"></rect><text x="10" y="18.5" text-anchor="start" font="10px &quot;Arial&quot;" stroke="none" fill="#000000" style="-webkit-tap-highlight-color: rgba(0, 0, 0, 0); text-anchor: start; font-style: normal; font-variant: normal; font-weight: normal; font-stretch: normal; font-size: 15px; line-height: normal; font-family: Arial;" id="clickt" class="flowchartt" font-size="15px" transform="matrix(1,0,0,1,261.5,186)"><tspan dy="5.5" style="-webkit-tap-highlight-color: rgba(0, 0, 0, 0);">Click the "Compute" button</tspan></text><rect x="0" y="0" width="288" height="37" r="0" rx="0" ry="0" fill="#ffffff" stroke="#000000" style="-webkit-tap-highlight-color: rgba(0, 0, 0, 0);" stroke-width="2" class="flowchart" id="calculate" transform="matrix(1,0,0,1,214.5,277)"></rect><text x="10" y="18.5" text-anchor="start" font="10px &quot;Arial&quot;" stroke="none" fill="#000000" style="-webkit-tap-highlight-color: rgba(0, 0, 0, 0); text-anchor: start; font-style: normal; font-variant: normal; font-weight: normal; font-stretch: normal; font-size: 15px; line-height: normal; font-family: Arial;" id="calculatet" class="flowchartt" font-size="15px" transform="matrix(1,0,0,1,214.5,277)"><tspan dy="5.5" style="-webkit-tap-highlight-color: rgba(0, 0, 0, 0);">The app compute the data in the backend </tspan></text><rect x="0" y="0" width="709" height="37" r="0" rx="0" ry="0" fill="#ffffff" stroke="#000000" style="-webkit-tap-highlight-color: rgba(0, 0, 0, 0);" stroke-width="2" class="flowchart" id="display" transform="matrix(1,0,0,1,4,368)"></rect><text x="10" y="18.5" text-anchor="start" font="10px &quot;Arial&quot;" stroke="none" fill="#000000" style="-webkit-tap-highlight-color: rgba(0, 0, 0, 0); text-anchor: start; font-style: normal; font-variant: normal; font-weight: normal; font-stretch: normal; font-size: 15px; line-height: normal; font-family: Arial;" id="displayt" class="flowchartt" font-size="15px" transform="matrix(1,0,0,1,4,368)"><tspan dy="5.5" style="-webkit-tap-highlight-color: rgba(0, 0, 0, 0);">The app will display the given prices per m^2, the lowest, the everage and the highest prices of apartments</tspan></text><rect x="0" y="0" width="519" height="37" r="0" rx="0" ry="0" fill="#ffffff" stroke="#000000" style="-webkit-tap-highlight-color: rgba(0, 0, 0, 0);" stroke-width="2" class="flowchart" id="final" transform="matrix(1,0,0,1,99,459)"></rect><text x="10" y="18.5" text-anchor="start" font="10px &quot;Arial&quot;" stroke="none" fill="#000000" style="-webkit-tap-highlight-color: rgba(0, 0, 0, 0); text-anchor: start; font-style: normal; font-variant: normal; font-weight: normal; font-stretch: normal; font-size: 15px; line-height: normal; font-family: Arial;" id="finalt" class="flowchartt" font-size="15px" transform="matrix(1,0,0,1,99,459)"><tspan dy="5.5" style="-webkit-tap-highlight-color: rgba(0, 0, 0, 0);">The app will display the different color to tell the user whether it's a good deal.</tspan></text><rect x="0" y="0" width="46" height="37" r="20" rx="20" ry="20" fill="#ffffff" stroke="#000000" style="-webkit-tap-highlight-color: rgba(0, 0, 0, 0);" stroke-width="2" class="flowchart" id="end" transform="matrix(1,0,0,1,335.5,550)"></rect><text x="10" y="18.5" text-anchor="start" font="10px &quot;Arial&quot;" stroke="none" fill="#000000" style="-webkit-tap-highlight-color: rgba(0, 0, 0, 0); text-anchor: start; font-style: normal; font-variant: normal; font-weight: normal; font-stretch: normal; font-size: 15px; line-height: normal; font-family: Arial;" id="endt" class="flowchartt" font-size="15px" transform="matrix(1,0,0,1,335.5,550)"><tspan dy="5.5" style="-webkit-tap-highlight-color: rgba(0, 0, 0, 0);">End</tspan></text><path fill="none" stroke="#000000" d="M358.5,41C358.5,41,358.5,80.65409994125366,358.5,92.00043908460066" stroke-width="2" marker-end="url(#raphael-marker-endblock33)" style="-webkit-tap-highlight-color: rgba(0, 0, 0, 0);"></path><path fill="none" stroke="#000000" d="M358.5,132C358.5,132,358.5,171.65409994125366,358.5,183.00043908460066" stroke-width="2" marker-end="url(#raphael-marker-endblock33)" style="-webkit-tap-highlight-color: rgba(0, 0, 0, 0);"></path><path fill="none" stroke="#000000" d="M358.5,223C358.5,223,358.5,262.65409994125366,358.5,274.00043908460066" stroke-width="2" marker-end="url(#raphael-marker-endblock33)" style="-webkit-tap-highlight-color: rgba(0, 0, 0, 0);"></path><path fill="none" stroke="#000000" d="M358.5,314C358.5,314,358.5,353.65409994125366,358.5,365.00043908460066" stroke-width="2" marker-end="url(#raphael-marker-endblock33)" style="-webkit-tap-highlight-color: rgba(0, 0, 0, 0);"></path><path fill="none" stroke="#000000" d="M358.5,405C358.5,405,358.5,444.65409994125366,358.5,456.00043908460066" stroke-width="2" marker-end="url(#raphael-marker-endblock33)" style="-webkit-tap-highlight-color: rgba(0, 0, 0, 0);"></path><path fill="none" stroke="#000000" d="M358.5,496C358.5,496,358.5,535.6540999412537,358.5,547.0004390846007" stroke-width="2" marker-end="url(#raphael-marker-endblock33)" style="-webkit-tap-highlight-color: rgba(0, 0, 0, 0);"></path></svg>
